%TF.GenerationSoftware,KiCad,Pcbnew,(6.0.6-0)*%
%TF.CreationDate,2022-08-05T14:47:47+04:00*%
%TF.ProjectId,AM Radio Receiver,414d2052-6164-4696-9f20-526563656976,rev?*%
%TF.SameCoordinates,Original*%
%TF.FileFunction,Legend,Top*%
%TF.FilePolarity,Positive*%
%FSLAX46Y46*%
G04 Gerber Fmt 4.6, Leading zero omitted, Abs format (unit mm)*
G04 Created by KiCad (PCBNEW (6.0.6-0)) date 2022-08-05 14:47:47*
%MOMM*%
%LPD*%
G01*
G04 APERTURE LIST*
%ADD10C,0.150000*%
%ADD11C,0.120000*%
%ADD12C,0.127000*%
%ADD13C,0.340000*%
G04 APERTURE END LIST*
D10*
X41635714Y-86953571D02*
X42207142Y-86953571D01*
X42921428Y-86489285D02*
X42564285Y-86489285D01*
X42528571Y-86846428D01*
X42564285Y-86810714D01*
X42635714Y-86775000D01*
X42814285Y-86775000D01*
X42885714Y-86810714D01*
X42921428Y-86846428D01*
X42957142Y-86917857D01*
X42957142Y-87096428D01*
X42921428Y-87167857D01*
X42885714Y-87203571D01*
X42814285Y-87239285D01*
X42635714Y-87239285D01*
X42564285Y-87203571D01*
X42528571Y-87167857D01*
X43171428Y-86489285D02*
X43421428Y-87239285D01*
X43671428Y-86489285D01*
X45028571Y-86525000D02*
X44957142Y-86489285D01*
X44850000Y-86489285D01*
X44742857Y-86525000D01*
X44671428Y-86596428D01*
X44635714Y-86667857D01*
X44600000Y-86810714D01*
X44600000Y-86917857D01*
X44635714Y-87060714D01*
X44671428Y-87132142D01*
X44742857Y-87203571D01*
X44850000Y-87239285D01*
X44921428Y-87239285D01*
X45028571Y-87203571D01*
X45064285Y-87167857D01*
X45064285Y-86917857D01*
X44921428Y-86917857D01*
X45385714Y-87239285D02*
X45385714Y-86489285D01*
X45814285Y-87239285D01*
X45814285Y-86489285D01*
X46171428Y-87239285D02*
X46171428Y-86489285D01*
X46350000Y-86489285D01*
X46457142Y-86525000D01*
X46528571Y-86596428D01*
X46564285Y-86667857D01*
X46600000Y-86810714D01*
X46600000Y-86917857D01*
X46564285Y-87060714D01*
X46528571Y-87132142D01*
X46457142Y-87203571D01*
X46350000Y-87239285D01*
X46171428Y-87239285D01*
X37032142Y-86589285D02*
X37282142Y-87339285D01*
X37532142Y-86589285D01*
X37782142Y-87339285D02*
X37782142Y-86839285D01*
X37782142Y-86589285D02*
X37746428Y-86625000D01*
X37782142Y-86660714D01*
X37817857Y-86625000D01*
X37782142Y-86589285D01*
X37782142Y-86660714D01*
X38139285Y-86839285D02*
X38139285Y-87339285D01*
X38139285Y-86910714D02*
X38175000Y-86875000D01*
X38246428Y-86839285D01*
X38353571Y-86839285D01*
X38425000Y-86875000D01*
X38460714Y-86946428D01*
X38460714Y-87339285D01*
X39135714Y-87053571D02*
X39707142Y-87053571D01*
X39421428Y-87339285D02*
X39421428Y-86767857D01*
X40421428Y-86589285D02*
X40064285Y-86589285D01*
X40028571Y-86946428D01*
X40064285Y-86910714D01*
X40135714Y-86875000D01*
X40314285Y-86875000D01*
X40385714Y-86910714D01*
X40421428Y-86946428D01*
X40457142Y-87017857D01*
X40457142Y-87196428D01*
X40421428Y-87267857D01*
X40385714Y-87303571D01*
X40314285Y-87339285D01*
X40135714Y-87339285D01*
X40064285Y-87303571D01*
X40028571Y-87267857D01*
X40671428Y-86589285D02*
X40921428Y-87339285D01*
X41171428Y-86589285D01*
%TO.C,R1*%
X31582380Y-64166666D02*
X31106190Y-64500000D01*
X31582380Y-64738095D02*
X30582380Y-64738095D01*
X30582380Y-64357142D01*
X30630000Y-64261904D01*
X30677619Y-64214285D01*
X30772857Y-64166666D01*
X30915714Y-64166666D01*
X31010952Y-64214285D01*
X31058571Y-64261904D01*
X31106190Y-64357142D01*
X31106190Y-64738095D01*
X31582380Y-63214285D02*
X31582380Y-63785714D01*
X31582380Y-63500000D02*
X30582380Y-63500000D01*
X30725238Y-63595238D01*
X30820476Y-63690476D01*
X30868095Y-63785714D01*
%TO.C,R8*%
X65977380Y-64916666D02*
X65501190Y-65250000D01*
X65977380Y-65488095D02*
X64977380Y-65488095D01*
X64977380Y-65107142D01*
X65025000Y-65011904D01*
X65072619Y-64964285D01*
X65167857Y-64916666D01*
X65310714Y-64916666D01*
X65405952Y-64964285D01*
X65453571Y-65011904D01*
X65501190Y-65107142D01*
X65501190Y-65488095D01*
X65405952Y-64345238D02*
X65358333Y-64440476D01*
X65310714Y-64488095D01*
X65215476Y-64535714D01*
X65167857Y-64535714D01*
X65072619Y-64488095D01*
X65025000Y-64440476D01*
X64977380Y-64345238D01*
X64977380Y-64154761D01*
X65025000Y-64059523D01*
X65072619Y-64011904D01*
X65167857Y-63964285D01*
X65215476Y-63964285D01*
X65310714Y-64011904D01*
X65358333Y-64059523D01*
X65405952Y-64154761D01*
X65405952Y-64345238D01*
X65453571Y-64440476D01*
X65501190Y-64488095D01*
X65596428Y-64535714D01*
X65786904Y-64535714D01*
X65882142Y-64488095D01*
X65929761Y-64440476D01*
X65977380Y-64345238D01*
X65977380Y-64154761D01*
X65929761Y-64059523D01*
X65882142Y-64011904D01*
X65786904Y-63964285D01*
X65596428Y-63964285D01*
X65501190Y-64011904D01*
X65453571Y-64059523D01*
X65405952Y-64154761D01*
%TO.C,C2*%
X41857142Y-68466666D02*
X41904761Y-68514285D01*
X41952380Y-68657142D01*
X41952380Y-68752380D01*
X41904761Y-68895238D01*
X41809523Y-68990476D01*
X41714285Y-69038095D01*
X41523809Y-69085714D01*
X41380952Y-69085714D01*
X41190476Y-69038095D01*
X41095238Y-68990476D01*
X41000000Y-68895238D01*
X40952380Y-68752380D01*
X40952380Y-68657142D01*
X41000000Y-68514285D01*
X41047619Y-68466666D01*
X41047619Y-68085714D02*
X41000000Y-68038095D01*
X40952380Y-67942857D01*
X40952380Y-67704761D01*
X41000000Y-67609523D01*
X41047619Y-67561904D01*
X41142857Y-67514285D01*
X41238095Y-67514285D01*
X41380952Y-67561904D01*
X41952380Y-68133333D01*
X41952380Y-67514285D01*
%TO.C,C1*%
X37957142Y-68366666D02*
X38004761Y-68414285D01*
X38052380Y-68557142D01*
X38052380Y-68652380D01*
X38004761Y-68795238D01*
X37909523Y-68890476D01*
X37814285Y-68938095D01*
X37623809Y-68985714D01*
X37480952Y-68985714D01*
X37290476Y-68938095D01*
X37195238Y-68890476D01*
X37100000Y-68795238D01*
X37052380Y-68652380D01*
X37052380Y-68557142D01*
X37100000Y-68414285D01*
X37147619Y-68366666D01*
X38052380Y-67414285D02*
X38052380Y-67985714D01*
X38052380Y-67700000D02*
X37052380Y-67700000D01*
X37195238Y-67795238D01*
X37290476Y-67890476D01*
X37338095Y-67985714D01*
%TO.C,R5*%
X53252380Y-64166666D02*
X52776190Y-64500000D01*
X53252380Y-64738095D02*
X52252380Y-64738095D01*
X52252380Y-64357142D01*
X52300000Y-64261904D01*
X52347619Y-64214285D01*
X52442857Y-64166666D01*
X52585714Y-64166666D01*
X52680952Y-64214285D01*
X52728571Y-64261904D01*
X52776190Y-64357142D01*
X52776190Y-64738095D01*
X52252380Y-63261904D02*
X52252380Y-63738095D01*
X52728571Y-63785714D01*
X52680952Y-63738095D01*
X52633333Y-63642857D01*
X52633333Y-63404761D01*
X52680952Y-63309523D01*
X52728571Y-63261904D01*
X52823809Y-63214285D01*
X53061904Y-63214285D01*
X53157142Y-63261904D01*
X53204761Y-63309523D01*
X53252380Y-63404761D01*
X53252380Y-63642857D01*
X53204761Y-63738095D01*
X53157142Y-63785714D01*
%TO.C,C4*%
X70857142Y-70566666D02*
X70904761Y-70614285D01*
X70952380Y-70757142D01*
X70952380Y-70852380D01*
X70904761Y-70995238D01*
X70809523Y-71090476D01*
X70714285Y-71138095D01*
X70523809Y-71185714D01*
X70380952Y-71185714D01*
X70190476Y-71138095D01*
X70095238Y-71090476D01*
X70000000Y-70995238D01*
X69952380Y-70852380D01*
X69952380Y-70757142D01*
X70000000Y-70614285D01*
X70047619Y-70566666D01*
X70285714Y-69709523D02*
X70952380Y-69709523D01*
X69904761Y-69947619D02*
X70619047Y-70185714D01*
X70619047Y-69566666D01*
%TO.C,J1*%
X47552380Y-84933333D02*
X48266666Y-84933333D01*
X48409523Y-84980952D01*
X48504761Y-85076190D01*
X48552380Y-85219047D01*
X48552380Y-85314285D01*
X48552380Y-83933333D02*
X48552380Y-84504761D01*
X48552380Y-84219047D02*
X47552380Y-84219047D01*
X47695238Y-84314285D01*
X47790476Y-84409523D01*
X47838095Y-84504761D01*
%TO.C,R10*%
X38452380Y-76442857D02*
X37976190Y-76776190D01*
X38452380Y-77014285D02*
X37452380Y-77014285D01*
X37452380Y-76633333D01*
X37500000Y-76538095D01*
X37547619Y-76490476D01*
X37642857Y-76442857D01*
X37785714Y-76442857D01*
X37880952Y-76490476D01*
X37928571Y-76538095D01*
X37976190Y-76633333D01*
X37976190Y-77014285D01*
X38452380Y-75490476D02*
X38452380Y-76061904D01*
X38452380Y-75776190D02*
X37452380Y-75776190D01*
X37595238Y-75871428D01*
X37690476Y-75966666D01*
X37738095Y-76061904D01*
X37452380Y-74871428D02*
X37452380Y-74776190D01*
X37500000Y-74680952D01*
X37547619Y-74633333D01*
X37642857Y-74585714D01*
X37833333Y-74538095D01*
X38071428Y-74538095D01*
X38261904Y-74585714D01*
X38357142Y-74633333D01*
X38404761Y-74680952D01*
X38452380Y-74776190D01*
X38452380Y-74871428D01*
X38404761Y-74966666D01*
X38357142Y-75014285D01*
X38261904Y-75061904D01*
X38071428Y-75109523D01*
X37833333Y-75109523D01*
X37642857Y-75061904D01*
X37547619Y-75014285D01*
X37500000Y-74966666D01*
X37452380Y-74871428D01*
%TO.C,U3*%
X53782380Y-76341904D02*
X54591904Y-76341904D01*
X54687142Y-76294285D01*
X54734761Y-76246666D01*
X54782380Y-76151428D01*
X54782380Y-75960952D01*
X54734761Y-75865714D01*
X54687142Y-75818095D01*
X54591904Y-75770476D01*
X53782380Y-75770476D01*
X53782380Y-75389523D02*
X53782380Y-74770476D01*
X54163333Y-75103809D01*
X54163333Y-74960952D01*
X54210952Y-74865714D01*
X54258571Y-74818095D01*
X54353809Y-74770476D01*
X54591904Y-74770476D01*
X54687142Y-74818095D01*
X54734761Y-74865714D01*
X54782380Y-74960952D01*
X54782380Y-75246666D01*
X54734761Y-75341904D01*
X54687142Y-75389523D01*
%TO.C,R11*%
X33852380Y-76342857D02*
X33376190Y-76676190D01*
X33852380Y-76914285D02*
X32852380Y-76914285D01*
X32852380Y-76533333D01*
X32900000Y-76438095D01*
X32947619Y-76390476D01*
X33042857Y-76342857D01*
X33185714Y-76342857D01*
X33280952Y-76390476D01*
X33328571Y-76438095D01*
X33376190Y-76533333D01*
X33376190Y-76914285D01*
X33852380Y-75390476D02*
X33852380Y-75961904D01*
X33852380Y-75676190D02*
X32852380Y-75676190D01*
X32995238Y-75771428D01*
X33090476Y-75866666D01*
X33138095Y-75961904D01*
X33852380Y-74438095D02*
X33852380Y-75009523D01*
X33852380Y-74723809D02*
X32852380Y-74723809D01*
X32995238Y-74819047D01*
X33090476Y-74914285D01*
X33138095Y-75009523D01*
%TO.C,U1*%
X35322380Y-52781904D02*
X36131904Y-52781904D01*
X36227142Y-52734285D01*
X36274761Y-52686666D01*
X36322380Y-52591428D01*
X36322380Y-52400952D01*
X36274761Y-52305714D01*
X36227142Y-52258095D01*
X36131904Y-52210476D01*
X35322380Y-52210476D01*
X36322380Y-51210476D02*
X36322380Y-51781904D01*
X36322380Y-51496190D02*
X35322380Y-51496190D01*
X35465238Y-51591428D01*
X35560476Y-51686666D01*
X35608095Y-51781904D01*
%TO.C,R4*%
X53052380Y-51566666D02*
X52576190Y-51900000D01*
X53052380Y-52138095D02*
X52052380Y-52138095D01*
X52052380Y-51757142D01*
X52100000Y-51661904D01*
X52147619Y-51614285D01*
X52242857Y-51566666D01*
X52385714Y-51566666D01*
X52480952Y-51614285D01*
X52528571Y-51661904D01*
X52576190Y-51757142D01*
X52576190Y-52138095D01*
X52385714Y-50709523D02*
X53052380Y-50709523D01*
X52004761Y-50947619D02*
X52719047Y-51185714D01*
X52719047Y-50566666D01*
%TO.C,U2*%
X64832380Y-56741904D02*
X65641904Y-56741904D01*
X65737142Y-56694285D01*
X65784761Y-56646666D01*
X65832380Y-56551428D01*
X65832380Y-56360952D01*
X65784761Y-56265714D01*
X65737142Y-56218095D01*
X65641904Y-56170476D01*
X64832380Y-56170476D01*
X64927619Y-55741904D02*
X64880000Y-55694285D01*
X64832380Y-55599047D01*
X64832380Y-55360952D01*
X64880000Y-55265714D01*
X64927619Y-55218095D01*
X65022857Y-55170476D01*
X65118095Y-55170476D01*
X65260952Y-55218095D01*
X65832380Y-55789523D01*
X65832380Y-55170476D01*
%TO.C,R2*%
X48752380Y-64066666D02*
X48276190Y-64400000D01*
X48752380Y-64638095D02*
X47752380Y-64638095D01*
X47752380Y-64257142D01*
X47800000Y-64161904D01*
X47847619Y-64114285D01*
X47942857Y-64066666D01*
X48085714Y-64066666D01*
X48180952Y-64114285D01*
X48228571Y-64161904D01*
X48276190Y-64257142D01*
X48276190Y-64638095D01*
X47847619Y-63685714D02*
X47800000Y-63638095D01*
X47752380Y-63542857D01*
X47752380Y-63304761D01*
X47800000Y-63209523D01*
X47847619Y-63161904D01*
X47942857Y-63114285D01*
X48038095Y-63114285D01*
X48180952Y-63161904D01*
X48752380Y-63733333D01*
X48752380Y-63114285D01*
%TO.C,R3*%
X31552380Y-52266666D02*
X31076190Y-52600000D01*
X31552380Y-52838095D02*
X30552380Y-52838095D01*
X30552380Y-52457142D01*
X30600000Y-52361904D01*
X30647619Y-52314285D01*
X30742857Y-52266666D01*
X30885714Y-52266666D01*
X30980952Y-52314285D01*
X31028571Y-52361904D01*
X31076190Y-52457142D01*
X31076190Y-52838095D01*
X30552380Y-51933333D02*
X30552380Y-51314285D01*
X30933333Y-51647619D01*
X30933333Y-51504761D01*
X30980952Y-51409523D01*
X31028571Y-51361904D01*
X31123809Y-51314285D01*
X31361904Y-51314285D01*
X31457142Y-51361904D01*
X31504761Y-51409523D01*
X31552380Y-51504761D01*
X31552380Y-51790476D01*
X31504761Y-51885714D01*
X31457142Y-51933333D01*
%TO.C,R6*%
X70852380Y-50566666D02*
X70376190Y-50900000D01*
X70852380Y-51138095D02*
X69852380Y-51138095D01*
X69852380Y-50757142D01*
X69900000Y-50661904D01*
X69947619Y-50614285D01*
X70042857Y-50566666D01*
X70185714Y-50566666D01*
X70280952Y-50614285D01*
X70328571Y-50661904D01*
X70376190Y-50757142D01*
X70376190Y-51138095D01*
X69852380Y-49709523D02*
X69852380Y-49900000D01*
X69900000Y-49995238D01*
X69947619Y-50042857D01*
X70090476Y-50138095D01*
X70280952Y-50185714D01*
X70661904Y-50185714D01*
X70757142Y-50138095D01*
X70804761Y-50090476D01*
X70852380Y-49995238D01*
X70852380Y-49804761D01*
X70804761Y-49709523D01*
X70757142Y-49661904D01*
X70661904Y-49614285D01*
X70423809Y-49614285D01*
X70328571Y-49661904D01*
X70280952Y-49709523D01*
X70233333Y-49804761D01*
X70233333Y-49995238D01*
X70280952Y-50090476D01*
X70328571Y-50138095D01*
X70423809Y-50185714D01*
%TO.C,D1*%
X70552380Y-61738095D02*
X69552380Y-61738095D01*
X69552380Y-61500000D01*
X69600000Y-61357142D01*
X69695238Y-61261904D01*
X69790476Y-61214285D01*
X69980952Y-61166666D01*
X70123809Y-61166666D01*
X70314285Y-61214285D01*
X70409523Y-61261904D01*
X70504761Y-61357142D01*
X70552380Y-61500000D01*
X70552380Y-61738095D01*
X70552380Y-60214285D02*
X70552380Y-60785714D01*
X70552380Y-60500000D02*
X69552380Y-60500000D01*
X69695238Y-60595238D01*
X69790476Y-60690476D01*
X69838095Y-60785714D01*
X70952380Y-65321904D02*
X69952380Y-65321904D01*
X70952380Y-64750476D02*
X70380952Y-65179047D01*
X69952380Y-64750476D02*
X70523809Y-65321904D01*
%TO.C,R7*%
X65452380Y-47166666D02*
X64976190Y-47500000D01*
X65452380Y-47738095D02*
X64452380Y-47738095D01*
X64452380Y-47357142D01*
X64500000Y-47261904D01*
X64547619Y-47214285D01*
X64642857Y-47166666D01*
X64785714Y-47166666D01*
X64880952Y-47214285D01*
X64928571Y-47261904D01*
X64976190Y-47357142D01*
X64976190Y-47738095D01*
X64452380Y-46833333D02*
X64452380Y-46166666D01*
X65452380Y-46595238D01*
%TO.C,C3*%
X65857142Y-68691666D02*
X65904761Y-68739285D01*
X65952380Y-68882142D01*
X65952380Y-68977380D01*
X65904761Y-69120238D01*
X65809523Y-69215476D01*
X65714285Y-69263095D01*
X65523809Y-69310714D01*
X65380952Y-69310714D01*
X65190476Y-69263095D01*
X65095238Y-69215476D01*
X65000000Y-69120238D01*
X64952380Y-68977380D01*
X64952380Y-68882142D01*
X65000000Y-68739285D01*
X65047619Y-68691666D01*
X64952380Y-68358333D02*
X64952380Y-67739285D01*
X65333333Y-68072619D01*
X65333333Y-67929761D01*
X65380952Y-67834523D01*
X65428571Y-67786904D01*
X65523809Y-67739285D01*
X65761904Y-67739285D01*
X65857142Y-67786904D01*
X65904761Y-67834523D01*
X65952380Y-67929761D01*
X65952380Y-68215476D01*
X65904761Y-68310714D01*
X65857142Y-68358333D01*
%TO.C,J3*%
X70002160Y-81058467D02*
X70716733Y-81058467D01*
X70859648Y-81106105D01*
X70954924Y-81201381D01*
X71002562Y-81344296D01*
X71002562Y-81439572D01*
X70002160Y-80677361D02*
X70002160Y-80058065D01*
X70383266Y-80391532D01*
X70383266Y-80248618D01*
X70430904Y-80153341D01*
X70478542Y-80105703D01*
X70573819Y-80058065D01*
X70812010Y-80058065D01*
X70907286Y-80105703D01*
X70954924Y-80153341D01*
X71002562Y-80248618D01*
X71002562Y-80534447D01*
X70954924Y-80629723D01*
X70907286Y-80677361D01*
%TO.C,R9*%
X66002380Y-72141666D02*
X65526190Y-72475000D01*
X66002380Y-72713095D02*
X65002380Y-72713095D01*
X65002380Y-72332142D01*
X65050000Y-72236904D01*
X65097619Y-72189285D01*
X65192857Y-72141666D01*
X65335714Y-72141666D01*
X65430952Y-72189285D01*
X65478571Y-72236904D01*
X65526190Y-72332142D01*
X65526190Y-72713095D01*
X66002380Y-71665476D02*
X66002380Y-71475000D01*
X65954761Y-71379761D01*
X65907142Y-71332142D01*
X65764285Y-71236904D01*
X65573809Y-71189285D01*
X65192857Y-71189285D01*
X65097619Y-71236904D01*
X65050000Y-71284523D01*
X65002380Y-71379761D01*
X65002380Y-71570238D01*
X65050000Y-71665476D01*
X65097619Y-71713095D01*
X65192857Y-71760714D01*
X65430952Y-71760714D01*
X65526190Y-71713095D01*
X65573809Y-71665476D01*
X65621428Y-71570238D01*
X65621428Y-71379761D01*
X65573809Y-71284523D01*
X65526190Y-71236904D01*
X65430952Y-71189285D01*
D11*
%TO.C,R1*%
X34870000Y-60730000D02*
X34540000Y-60730000D01*
X34540000Y-67270000D02*
X34870000Y-67270000D01*
X32130000Y-60730000D02*
X32460000Y-60730000D01*
X32130000Y-67270000D02*
X32130000Y-60730000D01*
X32460000Y-67270000D02*
X32130000Y-67270000D01*
X34870000Y-67270000D02*
X34870000Y-60730000D01*
%TO.C,R8*%
X63020000Y-66120000D02*
X56480000Y-66120000D01*
X56480000Y-63380000D02*
X56480000Y-63710000D01*
X63020000Y-63710000D02*
X63020000Y-63380000D01*
X63020000Y-63380000D02*
X56480000Y-63380000D01*
X56480000Y-66120000D02*
X56480000Y-65790000D01*
X63020000Y-65790000D02*
X63020000Y-66120000D01*
%TO.C,C2*%
X42870000Y-59880000D02*
X40130000Y-59880000D01*
X40130000Y-59880000D02*
X40130000Y-67120000D01*
X42870000Y-59880000D02*
X42870000Y-67120000D01*
X42870000Y-67120000D02*
X40130000Y-67120000D01*
%TO.C,C1*%
X38870000Y-59880000D02*
X38870000Y-67120000D01*
X38870000Y-67120000D02*
X36130000Y-67120000D01*
X38870000Y-59880000D02*
X36130000Y-59880000D01*
X36130000Y-59880000D02*
X36130000Y-67120000D01*
%TO.C,R5*%
X51540000Y-60730000D02*
X51870000Y-60730000D01*
X49460000Y-60730000D02*
X49130000Y-60730000D01*
X51870000Y-67270000D02*
X51540000Y-67270000D01*
X51870000Y-60730000D02*
X51870000Y-67270000D01*
X49130000Y-60730000D02*
X49130000Y-67270000D01*
X49130000Y-67270000D02*
X49460000Y-67270000D01*
%TO.C,C4*%
X66630000Y-74120000D02*
X69370000Y-74120000D01*
X69370000Y-74120000D02*
X69370000Y-66880000D01*
X66630000Y-74120000D02*
X66630000Y-66880000D01*
X66630000Y-66880000D02*
X69370000Y-66880000D01*
%TO.C,J1*%
X46910000Y-85830000D02*
X46910000Y-83170000D01*
X36630000Y-85830000D02*
X36630000Y-84500000D01*
X39230000Y-85830000D02*
X46910000Y-85830000D01*
X39230000Y-83170000D02*
X46910000Y-83170000D01*
X39230000Y-85830000D02*
X39230000Y-83170000D01*
X37960000Y-85830000D02*
X36630000Y-85830000D01*
%TO.C,R10*%
X38730000Y-72330000D02*
X39060000Y-72330000D01*
X41140000Y-78870000D02*
X41470000Y-78870000D01*
X38730000Y-78870000D02*
X38730000Y-72330000D01*
X41470000Y-78870000D02*
X41470000Y-72330000D01*
X39060000Y-78870000D02*
X38730000Y-78870000D01*
X41470000Y-72330000D02*
X41140000Y-72330000D01*
%TO.C,U3*%
X53330000Y-78815000D02*
X53330000Y-76580000D01*
X53330000Y-74580000D02*
X53330000Y-72345000D01*
X43050000Y-78815000D02*
X53330000Y-78815000D01*
X53330000Y-72345000D02*
X43050000Y-72345000D01*
X43050000Y-72345000D02*
X43050000Y-78815000D01*
X53330000Y-74580000D02*
G75*
G03*
X53330000Y-76580000I0J-1000000D01*
G01*
%TO.C,R11*%
X37170000Y-72330000D02*
X37170000Y-78870000D01*
X37170000Y-78870000D02*
X36840000Y-78870000D01*
X36840000Y-72330000D02*
X37170000Y-72330000D01*
X34430000Y-72330000D02*
X34430000Y-78870000D01*
X34760000Y-72330000D02*
X34430000Y-72330000D01*
X34430000Y-78870000D02*
X34760000Y-78870000D01*
%TO.C,U1*%
X36870000Y-55255000D02*
X47150000Y-55255000D01*
X47150000Y-48785000D02*
X36870000Y-48785000D01*
X47150000Y-55255000D02*
X47150000Y-48785000D01*
X36870000Y-53020000D02*
X36870000Y-55255000D01*
X36870000Y-48785000D02*
X36870000Y-51020000D01*
X36870000Y-53020000D02*
G75*
G03*
X36870000Y-51020000I0J1000000D01*
G01*
%TO.C,R4*%
X48880000Y-55020000D02*
X49210000Y-55020000D01*
X48880000Y-48480000D02*
X48880000Y-55020000D01*
X51620000Y-48480000D02*
X51620000Y-55020000D01*
X51620000Y-55020000D02*
X51290000Y-55020000D01*
X51290000Y-48480000D02*
X51620000Y-48480000D01*
X49210000Y-48480000D02*
X48880000Y-48480000D01*
%TO.C,U2*%
X64380000Y-59215000D02*
X64380000Y-56980000D01*
X64380000Y-54980000D02*
X64380000Y-52745000D01*
X64380000Y-52745000D02*
X54100000Y-52745000D01*
X54100000Y-59215000D02*
X64380000Y-59215000D01*
X54100000Y-52745000D02*
X54100000Y-59215000D01*
X64380000Y-54980000D02*
G75*
G03*
X64380000Y-56980000I0J-1000000D01*
G01*
%TO.C,R2*%
X47040000Y-67270000D02*
X47370000Y-67270000D01*
X44630000Y-67270000D02*
X44630000Y-60730000D01*
X47370000Y-60730000D02*
X47040000Y-60730000D01*
X47370000Y-67270000D02*
X47370000Y-60730000D01*
X44630000Y-60730000D02*
X44960000Y-60730000D01*
X44960000Y-67270000D02*
X44630000Y-67270000D01*
%TO.C,R3*%
X34870000Y-48730000D02*
X34870000Y-55270000D01*
X32130000Y-55270000D02*
X32460000Y-55270000D01*
X34540000Y-48730000D02*
X34870000Y-48730000D01*
X34870000Y-55270000D02*
X34540000Y-55270000D01*
X32460000Y-48730000D02*
X32130000Y-48730000D01*
X32130000Y-48730000D02*
X32130000Y-55270000D01*
%TO.C,R6*%
X66630000Y-53770000D02*
X66630000Y-47230000D01*
X69370000Y-53770000D02*
X69370000Y-47230000D01*
X66630000Y-47230000D02*
X66960000Y-47230000D01*
X66960000Y-53770000D02*
X66630000Y-53770000D01*
X69370000Y-47230000D02*
X69040000Y-47230000D01*
X69040000Y-53770000D02*
X69370000Y-53770000D01*
%TO.C,D1*%
X66880000Y-62770000D02*
X69120000Y-62770000D01*
X66880000Y-63370000D02*
X69120000Y-63370000D01*
X66880000Y-62530000D02*
X69120000Y-62530000D01*
X66880000Y-62650000D02*
X69120000Y-62650000D01*
X68000000Y-58480000D02*
X68000000Y-59130000D01*
X69120000Y-59130000D02*
X66880000Y-59130000D01*
X68000000Y-64020000D02*
X68000000Y-63370000D01*
X66880000Y-59130000D02*
X66880000Y-63370000D01*
X69120000Y-63370000D02*
X69120000Y-59130000D01*
%TO.C,R7*%
X55980000Y-48370000D02*
X55980000Y-48040000D01*
X62520000Y-45960000D02*
X62520000Y-45630000D01*
X62520000Y-48370000D02*
X55980000Y-48370000D01*
X62520000Y-48040000D02*
X62520000Y-48370000D01*
X55980000Y-45630000D02*
X55980000Y-45960000D01*
X62520000Y-45630000D02*
X55980000Y-45630000D01*
%TO.C,C3*%
X56130000Y-67080000D02*
X56130000Y-69820000D01*
X56130000Y-69820000D02*
X63370000Y-69820000D01*
X63370000Y-67080000D02*
X63370000Y-69820000D01*
X56130000Y-67080000D02*
X63370000Y-67080000D01*
D12*
%TO.C,J3*%
X56775000Y-74900000D02*
X69175000Y-74900000D01*
X56775000Y-85900000D02*
X58475000Y-85900000D01*
X58475000Y-85900000D02*
X58475000Y-86700000D01*
X69175000Y-74900000D02*
X69175000Y-85900000D01*
X67475000Y-85900000D02*
X67475000Y-86700000D01*
X67475000Y-85900000D02*
X69175000Y-85900000D01*
X56775000Y-74900000D02*
X56775000Y-85900000D01*
D13*
X56345000Y-82400000D02*
G75*
G03*
X56345000Y-82400000I-170000J0D01*
G01*
D11*
%TO.C,R9*%
X63020000Y-73370000D02*
X56480000Y-73370000D01*
X63020000Y-70630000D02*
X56480000Y-70630000D01*
X56480000Y-73370000D02*
X56480000Y-73040000D01*
X63020000Y-70960000D02*
X63020000Y-70630000D01*
X63020000Y-73040000D02*
X63020000Y-73370000D01*
X56480000Y-70630000D02*
X56480000Y-70960000D01*
%TD*%
M02*
