M48
; DRILL file {KiCad (6.0.6-0)} date Friday, August 05, 2022 at 02:47:42 PM
; FORMAT={-:-/ absolute / inch / decimal}
; #@! TF.CreationDate,2022-08-05T14:47:42+04:00
; #@! TF.GenerationSoftware,Kicad,Pcbnew,(6.0.6-0)
; #@! TF.FileFunction,Plated,1,2,PTH
FMAT,2
INCH
; #@! TA.AperFunction,Plated,PTH,ViaDrill
T1C0.0157
; #@! TA.AperFunction,Plated,PTH,ComponentDrill
T2C0.0315
; #@! TA.AperFunction,Plated,PTH,ComponentDrill
T3C0.0394
%
G90
G05
T1
X2.0866Y-2.248
T2
X1.3189Y-1.8972
X1.3189Y-2.1972
X1.3189Y-2.3697
X1.3189Y-2.6697
X1.4094Y-2.8264
X1.4094Y-3.1264
X1.4764Y-2.4016
X1.4764Y-2.5984
X1.5039Y-1.848
X1.5039Y-2.248
X1.5787Y-2.8264
X1.5787Y-3.1264
X1.6039Y-1.848
X1.6039Y-2.248
X1.6339Y-2.4016
X1.6339Y-2.5984
X1.7039Y-1.848
X1.7039Y-2.248
X1.7472Y-2.7756
X1.7472Y-3.1756
X1.8039Y-1.848
X1.8039Y-2.248
X1.811Y-2.3697
X1.811Y-2.6697
X1.8472Y-2.7756
X1.8472Y-3.1756
X1.9472Y-2.7756
X1.9472Y-3.1756
X1.9783Y-1.8874
X1.9783Y-2.1874
X1.9882Y-2.3697
X1.9882Y-2.6697
X2.0472Y-2.7756
X2.0472Y-3.1756
X2.1823Y-2.0039
X2.1823Y-2.4039
X2.1827Y-1.8504
X2.2024Y-2.5492
X2.2024Y-2.8346
X2.2539Y-2.6949
X2.2823Y-2.0039
X2.2823Y-2.4039
X2.3823Y-2.0039
X2.3823Y-2.4039
X2.4508Y-2.6949
X2.4823Y-2.0039
X2.4823Y-2.4039
X2.4827Y-1.8504
X2.5024Y-2.5492
X2.5024Y-2.8346
X2.6772Y-1.8382
X2.6772Y-2.1382
X2.6772Y-2.2614
X2.6772Y-2.5614
X2.6772Y-2.6772
X2.6772Y-2.874
T3
X1.4945Y-3.3268
X1.5945Y-3.3268
X1.6945Y-3.3268
X1.7945Y-3.3268
T2
G00X2.2825Y-3.061
M15
G01X2.2825Y-3.0335
M16
G05
G00X2.4656Y-3.2441
M15
G01X2.4931Y-3.2441
M16
G05
G00X2.6762Y-3.061
M15
G01X2.6762Y-3.0335
M16
G05
T0
M30
